/* XPM */
static const char * toolsbar_run_xpm[] = {
"16 16 3 1",
" 	c None",
".	c #000000",
"+	c #30B834",
"                ",
"                ",
"  .             ",
"  .+.           ",
"  .+++.         ",
"  .+++++.       ",
"  .+++++++.     ",
"  .+++++++++.   ",
"  .+++++++++++. ",
"  .+++++++++.   ",
"  .+++++++.     ",
"  .+++++.       ",
"  .+++.         ",
"  .+.           ",
"  .             ",
"                "};
